<?xml version="1.0" encoding="UTF-8"?>
<svg version="1.1" xmlns="http://www.w3.org/2000/svg" width="512" height="512">
<path d="M0 0 C168.96 0 337.92 0 512 0 C512 168.96 512 337.92 512 512 C343.04 512 174.08 512 0 512 C0 343.04 0 174.08 0 0 Z " fill="#FDFDFD" transform="translate(0,0)"/>
<path d="M0 0 C8.51113968 -0.09327392 17.02206066 -0.16405248 25.53358746 -0.20724869 C29.48717679 -0.22799585 33.44041277 -0.25607296 37.39379883 -0.30175781 C41.2193676 -0.34568168 45.04459963 -0.36923347 48.87040138 -0.37950897 C50.31944889 -0.38681795 51.76848099 -0.4010868 53.21738243 -0.42292023 C67.54333423 -0.62992693 81.04491351 2.00930744 92.03125 11.8125 C98.67353842 18.79253189 101.20099236 25.92210996 101.5 35.5 C101.20089563 45.08098827 98.66912497 52.19010264 92.04296875 59.18359375 C85.57450719 64.93471158 78.33392925 67.97857886 70 70 C71.03125 70.391875 72.0625 70.78375 73.125 71.1875 C73.85589844 71.4659375 74.58679688 71.744375 75.33984375 72.03125 C77.27671172 72.73659986 79.22996209 73.39744185 81.19140625 74.03125 C97.01805878 79.26553955 109.11312167 88.56587338 121.1875 99.8125 C136.39633454 113.73944706 154.92861441 127.44152223 176.30078125 128.31640625 C177.27724609 128.35830078 178.25371094 128.40019531 179.25976562 128.44335938 C180.26716797 128.48267578 181.27457031 128.52199219 182.3125 128.5625 C183.85260742 128.62727539 183.85260742 128.62727539 185.42382812 128.69335938 C187.94909569 128.79906825 190.47445562 128.90116468 193 129 C187.59348214 134.40651786 173.02673659 132.27110052 165.6875 132.3125 C138.72285097 132.29602801 121.40540755 120.76598066 102.51757812 102.79589844 C84.24337528 85.4552075 65.84808141 73.08010715 40 72 C40 71.34 40 70.68 40 70 C40.93199219 69.96261719 41.86398438 69.92523438 42.82421875 69.88671875 C56.87614002 69.16209996 68.91537751 67.98144929 78.8125 57.0625 C84.88347175 48.56313955 85.94919818 39.19746698 85 29 C84.01208233 25.46403726 82.63665757 22.27937683 81 19 C80.4121875 17.63875 80.4121875 17.63875 79.8125 16.25 C74.84573248 10.08435756 67.51715493 6.9067236 60 5 C59.28714844 4.814375 58.57429688 4.62875 57.83984375 4.4375 C53.66433684 3.79423071 49.53100173 3.81567898 45.3125 3.8125 C44.44560547 3.80025391 43.57871094 3.78800781 42.68554688 3.77539062 C41.85732422 3.77345703 41.02910156 3.77152344 40.17578125 3.76953125 C39.42208252 3.76542236 38.66838379 3.76131348 37.8918457 3.75708008 C35.75722085 3.83525053 35.75722085 3.83525053 34 6 C33.69363364 8.08848287 33.69363364 8.08848287 33.73930359 10.52801514 C33.72867638 11.95795303 33.72867638 11.95795303 33.71783447 13.41677856 C33.72031189 14.46614594 33.72278931 15.51551331 33.7253418 16.59667969 C33.72023087 17.69924103 33.71511993 18.80180237 33.70985413 19.93777466 C33.69590289 23.59919599 33.69691947 27.26043018 33.69921875 30.921875 C33.69533403 33.46055166 33.69099982 35.99922767 33.68623352 38.53790283 C33.67875879 43.86774058 33.67893333 49.19750923 33.68432617 54.52734375 C33.6903576 60.68147087 33.67807881 66.83536887 33.6567561 72.98945689 C33.63698914 78.91293813 33.63396993 84.83634864 33.63749123 90.75986481 C33.63697756 93.27805366 33.63173145 95.79624614 33.62167931 98.31441498 C33.60934271 101.83836983 33.6160912 105.36179579 33.62768555 108.88574219 C33.62004181 109.92701263 33.61239807 110.96828308 33.60452271 112.04110718 C33.64376281 117.43719919 33.90711563 121.36175482 37 126 C39.91339183 128.09323531 42.72155869 128.34643884 46.25 128.625 C47.14203125 128.69976562 48.0340625 128.77453125 48.953125 128.8515625 C49.96632813 128.92503906 49.96632813 128.92503906 51 129 C51 129.66 51 130.32 51 131 C34.17 131 17.34 131 0 131 C0 130.34 0 129.68 0 129 C1.04800781 128.82984375 2.09601563 128.6596875 3.17578125 128.484375 C4.55484273 128.24045936 5.93374091 127.99561916 7.3125 127.75 C8.00279297 127.64042969 8.69308594 127.53085938 9.40429688 127.41796875 C13.47896912 126.6758603 13.47896912 126.6758603 16.6987381 124.2306509 C18.19424887 121.66701444 18.38105187 120.21135858 18.39440918 117.26271057 C18.40575897 116.31363831 18.41710876 115.36456604 18.42880249 114.38673401 C18.42587189 113.35233688 18.42294128 112.31793976 18.41992188 111.25219727 C18.43262619 109.61013809 18.43262619 109.61013809 18.44558716 107.93490601 C18.46900899 104.31195496 18.46997806 100.68942731 18.46875 97.06640625 C18.47584828 94.55061166 18.48354679 92.0348187 18.49182129 89.51902771 C18.50527792 84.2440151 18.50701031 78.96911179 18.50097656 73.6940918 C18.49433533 67.60109778 18.51720395 61.50870907 18.55429029 55.41583782 C18.58870247 49.54890823 18.59532297 43.68221672 18.59120178 37.8151989 C18.592897 35.32129043 18.60257788 32.82737427 18.62034607 30.33352852 C18.64244934 26.84759456 18.63287613 23.36312567 18.61523438 19.87719727 C18.62849762 18.84482437 18.64176086 17.81245148 18.65542603 16.74879456 C18.59992717 12.03562988 18.56248239 9.75030433 15.6697998 5.89170837 C12.51296322 3.65490613 9.97657914 2.91469701 6.1875 2.1875 C4.44533203 1.83751953 4.44533203 1.83751953 2.66796875 1.48046875 C1.78753906 1.32191406 0.90710938 1.16335937 0 1 C0 0.67 0 0.34 0 0 Z " fill="#95B4D7" transform="translate(126,116)"/>
<path d="M0 0 C9.30283408 -0.14042454 18.60529089 -0.24632981 27.90896225 -0.31087303 C32.23136174 -0.34188624 36.55302442 -0.38379109 40.875 -0.45263672 C68.22034015 -0.87668234 92.65812838 -0.32441192 113.68359375 19.62109375 C126.58530099 32.87090776 132.61568632 47.82531271 132.4375 66.3125 C132.43065186 67.40828369 132.42380371 68.50406738 132.41674805 69.63305664 C132.25069603 78.03081072 131.2417455 85.18355444 128 93 C127.649375 93.89332031 127.29875 94.78664063 126.9375 95.70703125 C123.90212372 102.56824638 119.25744165 107.72374819 114 113 C113.49597656 113.52722656 112.99195313 114.05445313 112.47265625 114.59765625 C107.76219195 119.0623572 100.61801955 121.86563064 94.16015625 122.10546875 C93.44730469 122.07066406 92.73445313 122.03585938 92 122 C92.66 121.360625 93.32 120.72125 94 120.0625 C95.00333957 119.04494882 96.00283155 118.02359942 97 117 C97.62777344 116.36835938 98.25554687 115.73671875 98.90234375 115.0859375 C111.0584882 102.25315546 115.76642343 86.01633707 115.5 68.625 C115.48718994 67.35148682 115.47437988 66.07797363 115.46118164 64.76586914 C115.07331583 46.7732691 109.98787952 32.51636069 97.44921875 19.25390625 C83.2805594 6.21512404 66.84570347 3.86494585 48.375 3.75 C47.30685059 3.7406543 46.23870117 3.73130859 45.13818359 3.72167969 C43.62732178 3.72796387 43.62732178 3.72796387 42.0859375 3.734375 C40.7254126 3.73775879 40.7254126 3.73775879 39.33740234 3.74121094 C36.72884439 3.84871494 36.72884439 3.84871494 34 6 C33.68415605 9.07745695 33.56266016 11.95763172 33.56762695 15.03955078 C33.5574353 15.97618561 33.54724365 16.91282043 33.53674316 17.87783813 C33.50647104 20.98372264 33.49732554 24.08929949 33.48828125 27.1953125 C33.47144511 29.34480832 33.45329633 31.49429422 33.43388367 33.64376831 C33.38626198 39.30890812 33.3565314 44.97400777 33.33044434 50.63928223 C33.30070008 56.41715429 33.2541488 62.19488778 33.20898438 67.97265625 C33.12281287 79.31503186 33.05552931 90.6574359 33 102 C32.53979084 101.59911635 32.07958168 101.19823271 31.60542679 100.78520107 C27.82523787 97.49429285 27.82523787 97.49429285 23.81317139 94.49928284 C20.29989539 91.85877863 19.1336162 89.77773704 18.38342285 85.41110229 C18.05113276 80.76320634 18.13560655 76.1206825 18.203125 71.46484375 C18.20135583 69.74043589 18.19607124 68.01602839 18.18743896 66.29164124 C18.17221674 61.76442262 18.19597651 57.23832341 18.23065186 52.71124268 C18.28121068 45.46314916 18.27946028 38.21510285 18.26424408 30.96689034 C18.26560376 28.44179448 18.28791854 25.9175226 18.31280518 23.39256287 C18.3162505 21.83845136 18.31910953 20.28433841 18.32128906 18.73022461 C18.33993767 17.68504166 18.33993767 17.68504166 18.35896301 16.6187439 C18.3419651 12.02588074 17.43735015 8.89069586 15 5 C12.72749012 3.6881992 12.72749012 3.6881992 10.125 3.1875 C9.28195313 2.97480469 8.43890625 2.76210937 7.5703125 2.54296875 C5.05015529 2.01059511 2.52799525 1.49381986 0 1 C0 0.67 0 0.34 0 0 Z " fill="#95B4D7" transform="translate(229,116)"/>
<path d="M0 0 C5.08623122 -0.07478624 10.17213442 -0.12889926 15.25878906 -0.16479492 C16.98508284 -0.17977675 18.71133926 -0.20016939 20.4375 -0.22631836 C44.31454046 -0.57867052 44.31454046 -0.57867052 53.4375 8.25 C57.03795687 12.2825117 57.52968489 16.39654628 57.36328125 21.66015625 C56.70270522 25.9148341 55.00322004 28.93684874 52 32 C47.40007546 35.06166221 43.56880625 37 38 37 C38 37.66 38 38.32 38 39 C38.74765625 39.23074219 39.4953125 39.46148437 40.265625 39.69921875 C43.56239902 41.26754125 44.69664294 42.8158272 46.75 45.8125 C47.42933594 46.78703125 48.10867187 47.7615625 48.80859375 48.765625 C49.53175781 49.83296875 50.25492188 50.9003125 51 52 C52.20527778 53.77557513 53.41223141 55.54990803 54.62402344 57.32104492 C55.76382324 58.99117474 56.89194832 60.66925405 58.01953125 62.34765625 C60.49079536 65.65729793 62.12320952 66.8280803 66.1875 67.625 C67.115625 67.74875 68.04375 67.8725 69 68 C69 68.66 69 69.32 69 70 C67.12574652 70.08188486 65.25042946 70.13958757 63.375 70.1875 C62.33085938 70.22230469 61.28671875 70.25710938 60.2109375 70.29296875 C55.32804672 69.84744952 52.20189574 68.32994818 48.91015625 64.6875 C48.30042969 63.800625 47.69070312 62.91375 47.0625 62 C46.38832031 61.02804687 45.71414062 60.05609375 45.01953125 59.0546875 C42.49917295 55.24246275 40.03449402 51.40075484 37.640625 47.5078125 C36.82851562 46.26644531 36.82851562 46.26644531 36 45 C35.4328125 44.08605469 34.865625 43.17210937 34.28125 42.23046875 C31.18409183 39.20225417 28.37082116 39.22255424 24.25 39.1875 C23.55261719 39.16236328 22.85523437 39.13722656 22.13671875 39.11132812 C20.42508051 39.05271038 18.7124814 39.02342947 17 39 C17.10964677 43.43801996 17.24033154 47.87517436 17.375 52.3125 C17.4059375 53.57513672 17.436875 54.83777344 17.46875 56.13867188 C17.50742187 57.34716797 17.54609375 58.55566406 17.5859375 59.80078125 C17.63306885 61.47394409 17.63306885 61.47394409 17.68115234 63.1809082 C17.805249 66.20368786 17.805249 66.20368786 20 69 C15.05 69 10.1 69 5 69 C5.66 68.01 6.32 67.02 7 66 C7.2911491 63.18890893 7.2911491 63.18890893 7.22705078 59.96801758 C7.22689972 58.72695755 7.22674866 57.48589752 7.22659302 56.20722961 C7.2163798 54.8529952 7.20594781 53.49876242 7.1953125 52.14453125 C7.19158167 50.75876571 7.18873503 49.37299752 7.18673706 47.98722839 C7.17910608 44.3424652 7.1594623 40.69786176 7.1373291 37.05316162 C7.11685908 33.33298911 7.10773288 29.61279074 7.09765625 25.89257812 C7.07621581 18.5949793 7.04208644 11.29751205 7 4 C4.69 3.01 2.38 2.02 0 1 C0 0.67 0 0.34 0 0 Z " fill="#353A4B" transform="translate(32,277)"/>
<path d="M0 0 C5.6558958 -0.07469184 11.31149838 -0.1288562 16.96777344 -0.16479492 C18.88807178 -0.17979221 20.80833639 -0.20019682 22.72851562 -0.22631836 C25.50399142 -0.26310351 28.27901064 -0.27981721 31.0546875 -0.29296875 C31.8998996 -0.30845261 32.74511169 -0.32393646 33.61593628 -0.33988953 C44.50689275 -0.34289871 54.65250224 3.31994299 62.8203125 10.62890625 C64.39896602 12.33845315 65.70978991 14.06468486 67 16 C67.4125 16.598125 67.825 17.19625 68.25 17.8125 C72.9362936 26.14368863 72.31093813 37.50855872 70.15234375 46.55078125 C67.07229274 54.7677309 61.95747815 61.03412855 54.25 65.3125 C42.18949813 70.37012982 30.5890608 70.37331929 17.75 70.1875 C15.92579235 70.17241988 14.10157258 70.15873739 12.27734375 70.14648438 C7.85125813 70.11375617 3.42576611 70.06215964 -1 70 C-1 69.34 -1 68.68 -1 68 C0.7015625 67.7834375 0.7015625 67.7834375 2.4375 67.5625 C5.80777201 67.38828522 5.80777201 67.38828522 7 66 C7.09396057 64.06693502 7.11743517 62.13041162 7.11352539 60.19506836 C7.11344986 58.95385727 7.11337433 57.71264618 7.11329651 56.43382263 C7.10818911 55.0691626 7.1029731 53.70450298 7.09765625 52.33984375 C7.095792 50.95121817 7.09436813 49.56259193 7.09336853 48.17396545 C7.08954387 44.51278885 7.07971403 40.8516517 7.06866455 37.19049072 C7.05844932 33.45707737 7.05387067 29.72365766 7.04882812 25.99023438 C7.03809171 18.66013823 7.02101591 11.33007464 7 4 C4.69 3.01 2.38 2.02 0 1 C0 0.67 0 0.34 0 0 Z M17 3 C16.89549231 4.95280184 16.86144626 6.90940545 16.85473633 8.86499023 C16.84835648 10.11976669 16.84197662 11.37454315 16.83540344 12.66734314 C16.83387488 14.04775962 16.83276086 15.42817662 16.83203125 16.80859375 C16.82882033 18.21484919 16.82545638 19.62110429 16.82194519 21.02735901 C16.81594768 23.97894058 16.81410592 26.93049284 16.81469727 29.88208008 C16.81479891 33.66980046 16.80114715 37.45733347 16.78392506 41.24500942 C16.77282258 44.15058765 16.77077752 47.05612033 16.77130699 49.96171761 C16.7701242 51.35840564 16.76568579 52.75509476 16.75797462 54.15176201 C16.74821075 56.10302201 16.75230766 58.05433664 16.75708008 60.00561523 C16.75565506 61.11734604 16.75423004 62.22907684 16.75276184 63.37449646 C16.73340822 66.15854078 16.73340822 66.15854078 19 68 C22.33156117 68.48107727 25.70018496 68.37040981 29.0625 68.375 C29.97966797 68.39949219 30.89683594 68.42398438 31.84179688 68.44921875 C40.76872482 68.48717876 47.89669054 65.76753786 54.5 59.69921875 C62.24485542 50.92574972 62.78884393 39.09285235 62.18652344 27.98974609 C61.3732113 19.31370695 56.36863 12.65331286 50 7 C44.72182763 3.53858986 39.57974181 1.87596823 33.26953125 1.8671875 C32.38458984 1.86589844 31.49964844 1.86460937 30.58789062 1.86328125 C29.67201172 1.86714844 28.75613281 1.87101562 27.8125 1.875 C26.4212793 1.86919922 26.4212793 1.86919922 25.00195312 1.86328125 C24.12087891 1.86457031 23.23980469 1.86585938 22.33203125 1.8671875 C21.52483643 1.86831543 20.7176416 1.86944336 19.88598633 1.87060547 C17.98763865 1.79334511 17.98763865 1.79334511 17 3 Z " fill="#9BB8D8" transform="translate(236,277)"/>
<path d="M0 0 C3.69788597 3.42333295 5.84601682 7.58135709 6.22949219 12.56616211 C6.27014825 14.00983655 6.29053617 15.45419275 6.29296875 16.8984375 C6.309505 17.66539444 6.32604126 18.43235138 6.34307861 19.22254944 C6.39125917 21.64714807 6.41286131 24.07112102 6.43359375 26.49609375 C6.46177871 28.1504216 6.49170965 29.80472068 6.5234375 31.45898438 C6.59700908 35.49213589 6.64676548 39.52494618 6.68359375 43.55859375 C10.31244699 43.71008673 10.31244699 43.71008673 13.68359375 42.55859375 C12.68359375 45.55859375 12.68359375 45.55859375 11.12109375 46.74609375 C7.40102811 47.98611563 4.61563299 47.93307368 0.68359375 47.55859375 C-1.71713071 45.31275474 -2.27394143 43.68598822 -3.31640625 40.55859375 C-3.85910156 40.98011719 -4.40179688 41.40164063 -4.9609375 41.8359375 C-5.67636719 42.38378906 -6.39179688 42.93164062 -7.12890625 43.49609375 C-7.83660156 44.04136719 -8.54429687 44.58664062 -9.2734375 45.1484375 C-12.84703472 47.61510786 -15.95848716 47.7452583 -20.19140625 47.80859375 C-21.73441406 47.84726562 -21.73441406 47.84726562 -23.30859375 47.88671875 C-27.85290313 47.39097591 -30.4094259 45.44106111 -33.62890625 42.30859375 C-35.83296532 38.71679378 -35.89964652 36.71418065 -35.31640625 32.55859375 C-32.54651459 26.53709014 -28.25995209 23.95726614 -22.31640625 21.55859375 C-16.38504125 19.64671044 -10.35519973 18.08946372 -4.31640625 16.55859375 C-4.20798674 14.64318237 -4.13062546 12.72599602 -4.06640625 10.80859375 C-3.99679687 9.20757812 -3.99679687 9.20757812 -3.92578125 7.57421875 C-4.08530032 4.4941501 -4.08530032 4.4941501 -5.98828125 2.19921875 C-10.1065478 -0.70291539 -14.48804804 -0.14691978 -19.31640625 0.55859375 C-22.89429731 2.65296901 -23.55128652 4.96612711 -24.56640625 8.80859375 C-24.81390625 10.04609375 -25.06140625 11.28359375 -25.31640625 12.55859375 C-27.69140625 12.68359375 -27.69140625 12.68359375 -30.31640625 12.55859375 C-30.97640625 11.89859375 -31.63640625 11.23859375 -32.31640625 10.55859375 C-32.31640625 6.32691689 -31.61498804 4.8641193 -28.62890625 1.80859375 C-20.90816434 -4.43459378 -8.56726719 -4.29317398 0 0 Z " fill="#9AB7D6" transform="translate(359.31640625,299.44140625)"/>
<path d="M0 0 C3.64387841 2.8644748 5.85514165 6.23463851 7.13671875 10.6796875 C7.13671875 13.3196875 7.13671875 15.9596875 7.13671875 18.6796875 C-5.07328125 18.6796875 -17.28328125 18.6796875 -29.86328125 18.6796875 C-27.73394848 31.95681398 -27.73394848 31.95681398 -19.11328125 40.6796875 C-13.00010938 42.56066346 -7.31496348 42.69356321 -1.48828125 39.8671875 C1.20787145 38.33354599 3.74959418 36.66895798 6.13671875 34.6796875 C4.82786773 40.24230434 0.74785904 42.7943007 -3.86328125 45.6796875 C-10.7925017 47.98942765 -20.31032142 48.0329547 -26.92578125 44.7421875 C-33.0355176 40.68440034 -37.37453535 33.82566782 -38.86328125 26.6796875 C-39.83173806 18.87150444 -37.87910827 12.08362121 -33.4375 5.59765625 C-25.04517958 -4.70299543 -11.57412446 -6.59781008 0 0 Z " fill="#9FBAD7" transform="translate(460.86328125,300.3203125)"/>
<path d="M0 0 C3.32121673 2.52166455 5.81424917 5.53474834 7.6875 9.28125 C7.6875 12.25125 7.6875 15.22125 7.6875 18.28125 C-4.1925 18.28125 -16.0725 18.28125 -28.3125 18.28125 C-26.91706406 30.48205425 -26.91706406 30.48205425 -20.3125 39.28125 C-15.37745141 42.87037625 -10.21471156 43.10883282 -4.3125 42.28125 C0.40828087 40.7288853 4.15615544 38.71110298 6.6875 34.28125 C7.6775 34.77625 7.6775 34.77625 8.6875 35.28125 C4.54300723 41.27723438 1.14888357 45.79665224 -6.3125 47.28125 C-21.06937292 48.37768027 -21.06937292 48.37768027 -27.3125 43.28125 C-33.99038451 36.69954901 -36.73399111 31.55594833 -36.8125 22.03125 C-36.84011664 14.63078084 -35.67744766 9.71006609 -30.3125 4.28125 C-22.20519318 -3.61817716 -10.00823415 -5.83813659 0 0 Z " fill="#2F3444" transform="translate(148.3125,299.71875)"/>
<path d="M0 0 C4.2384375 -0.0928125 4.2384375 -0.0928125 8.5625 -0.1875 C9.43849854 -0.21481201 10.31449707 -0.24212402 11.21704102 -0.27026367 C17.21339804 -0.33324066 22.07300884 0.42083515 26.7421875 4.53515625 C31.21100335 10.56035279 31.71464573 14.54151426 31 22 C29.65041545 26.66570657 27.77060215 29.37388575 24 32.4375 C15.86092262 36.6766028 10.41724936 35 0 35 C0 23.45 0 11.9 0 0 Z " fill="#FBFBFA" transform="translate(49,279)"/>
<path d="M0 0 C0.01030746 0.85777542 0.02061493 1.71555084 0.03123474 2.59931946 C0.12915653 10.6776163 0.23166345 18.75583908 0.33933926 26.83401203 C0.39453599 30.9872148 0.44795082 35.14042465 0.49731445 39.29370117 C0.54500591 43.3007999 0.59735049 47.30781314 0.65294075 51.3148098 C0.67334263 52.8446153 0.69205929 54.37444423 0.70907402 55.90429115 C0.73316605 58.04476012 0.76321392 60.18506793 0.79467773 62.32543945 C0.81022202 63.54455521 0.8257663 64.76367096 0.84178162 66.01972961 C0.87064557 69.05441943 0.87064557 69.05441943 2 72 C3.98 72.33 5.96 72.66 8 73 C8 73.66 8 74.32 8 75 C0.41 75 -7.18 75 -15 75 C-15 74.34 -15 73.68 -15 73 C-12.03 72.01 -12.03 72.01 -9 71 C-9 49.55 -9 28.1 -9 6 C-10.98 5.01 -12.96 4.02 -15 3 C-15 2.67 -15 2.34 -15 2 C-13.2508503 1.66223316 -11.50063855 1.32996329 -9.75 1 C-8.77546875 0.814375 -7.8009375 0.62875 -6.796875 0.4375 C-4 0 -4 0 0 0 Z " fill="#98B7D7" transform="translate(401,272)"/>
<path d="M0 0 C6.6 0 13.2 0 20 0 C18.02 0.99 18.02 0.99 16 2 C14.91710571 3.73741597 14.91710571 3.73741597 15 6 C16.03322495 9.06642639 16.03322495 9.06642639 17.67578125 12.33984375 C18.10361153 13.2458004 18.10361153 13.2458004 18.54008484 14.1700592 C19.45327674 16.09797793 20.38233315 18.01772225 21.3125 19.9375 C22.22835076 21.85526593 23.14091604 23.77456492 24.05278015 25.69422913 C24.88444238 27.44054102 25.72388147 29.18314296 26.5637207 30.92553711 C27.80805319 33.58912354 28.94281252 36.25783012 30 39 C32.37548254 36.0601953 33.9315398 33.19153103 35.41015625 29.71875 C35.84263672 28.71199219 36.27511719 27.70523437 36.72070312 26.66796875 C37.16349609 25.62253906 37.60628906 24.57710938 38.0625 23.5 C38.94831868 21.42669855 39.83500339 19.35376684 40.72265625 17.28125 C41.11203369 16.36408203 41.50141113 15.44691406 41.90258789 14.50195312 C42.59442584 12.92465494 43.33310108 11.36634096 44.13452148 9.84179688 C45.24388392 7.48099851 45.14306191 5.57511442 45 3 C42.525 2.01 42.525 2.01 40 1 C40 0.67 40 0.34 40 0 C44.62 0 49.24 0 54 0 C53.09209717 0.98806641 52.18419434 1.97613281 51.2487793 2.99414062 C48.0286713 6.75885218 45.99534401 10.57867159 44.01953125 15.09375 C43.67999924 15.84410522 43.34046722 16.59446045 42.99064636 17.36755371 C41.92018294 19.74023974 40.86619039 22.11982539 39.8125 24.5 C39.09546723 26.09553166 38.37737648 27.6905883 37.65820312 29.28515625 C34.71294613 35.83200655 31.81470656 42.39591328 29 49 C27.20043945 48.88549805 27.20043945 48.88549805 25 48 C23.37182617 45.35473633 23.37182617 45.35473633 21.79296875 41.83203125 C21.50448563 41.20076828 21.2160025 40.56950531 20.91877747 39.91911316 C19.99449071 37.88952174 19.09044447 35.85166367 18.1875 33.8125 C16.99823735 31.17102377 15.80200644 28.53271893 14.60546875 25.89453125 C14.16169388 24.91433517 14.16169388 24.91433517 13.70895386 23.91433716 C11.62868341 19.33604717 9.50586056 14.78132235 7.30078125 10.26171875 C6.49314331 8.59629028 6.49314331 8.59629028 5.66918945 6.8972168 C3.923394 3.57712809 3.923394 3.57712809 0 0 Z " fill="#2F3445" transform="translate(168,298)"/>
<path d="M0 0 C0.13530844 3.06398451 0.2342407 6.12197126 0.3125 9.1875 C0.35439453 10.05181641 0.39628906 10.91613281 0.43945312 11.80664062 C0.52684012 16.36824152 0.52567136 18.32797203 -2.37109375 22.03125 C-7.24079285 25.67809747 -10.90644641 26.44316753 -17 26 C-19.86831534 25.12357031 -20.85807102 24.16639949 -22.8125 21.875 C-24.38972843 18.05644695 -24.35437791 14.90771333 -23 11 C-20.2318018 6.7609958 -17.68854223 5.05508876 -13 3.25 C-11.96875 2.84265625 -10.9375 2.4353125 -9.875 2.015625 C-6.39386151 0.78587499 -3.69641157 0 0 0 Z " fill="#FAFCFB" transform="translate(356,318)"/>
<path d="M0 0 C4.33682792 2.2518145 7.16927416 4.42318541 9 9 C9.27905523 12.02309833 9.32453373 14.97933987 9 18 C8 19 8 19 5.40795898 19.11352539 C4.28204346 19.10828857 3.15612793 19.10305176 1.99609375 19.09765625 C0.78115234 19.09443359 -0.43378906 19.09121094 -1.68554688 19.08789062 C-2.96494141 19.07951172 -4.24433594 19.07113281 -5.5625 19.0625 C-6.84576172 19.05798828 -8.12902344 19.05347656 -9.45117188 19.04882812 C-12.63416022 19.03699545 -15.81705762 19.02051068 -19 19 C-18.257879 11.7865839 -17.06688328 7.70177812 -11.375 2.6875 C-7.37313168 -0.15593276 -4.947437 -0.41228642 0 0 Z " fill="#F8F8F8" transform="translate(139,298)"/>
<path d="M0 0 C3.66735838 1.86572407 5.67953881 4.03861644 7 8 C7.09182942 9.53949329 7.13002352 11.08277855 7.125 12.625 C7.12886719 13.81996094 7.12886719 13.81996094 7.1328125 15.0390625 C7 17 7 17 6 18 C4.00035018 18.08758003 1.9976389 18.10696576 -0.00390625 18.09765625 C-1.21884766 18.09443359 -2.43378906 18.09121094 -3.68554688 18.08789062 C-4.96494141 18.07951172 -6.24433594 18.07113281 -7.5625 18.0625 C-8.84576172 18.05798828 -10.12902344 18.05347656 -11.45117188 18.04882812 C-14.63416022 18.03699545 -17.81705762 18.02051068 -21 18 C-21.14787472 10.62136623 -18.55679034 7.00798864 -13.875 1.5 C-9.34562772 -0.86315076 -4.99062994 -0.86221718 0 0 Z " fill="#FAFCFC" transform="translate(452,299)"/>
<path d="M0 0 C4.41856259 1.52950244 5.23397537 3.85367597 7.26953125 7.8984375 C11.14371279 16.69637965 10.6029777 28.97236141 7.1875 37.875 C4.87851739 42.59791897 2.03088095 46.68642985 -2.75 49.125 C-6.75 49.125 -6.75 49.125 -8.75 48.125 C-7.986875 47.17625 -7.22375 46.2275 -6.4375 45.25 C0.11511663 35.86784437 0.10171261 25.15358632 -0.75 14.125 C-1.48696842 11.20253901 -2.48003412 8.87659275 -3.75 6.125 C-4 3.1875 -4 3.1875 -3.75 1.125 C-2.75 0.125 -2.75 0.125 0 0 Z " fill="#95B4D5" transform="translate(297.75,288.875)"/>
<path d="M0 0 C1.98 0 3.96 0 6 0 C6 4.29 6 8.58 6 13 C10.29 13 14.58 13 19 13 C19 14.98 19 16.96 19 19 C14.71 19 10.42 19 6 19 C6 23.29 6 27.58 6 32 C4.02 32 2.04 32 0 32 C0 27.71 0 23.42 0 19 C-4.62 19 -9.24 19 -14 19 C-14 17.02 -14 15.04 -14 13 C-7.565 12.505 -7.565 12.505 -1 12 C-0.67 8.04 -0.34 4.08 0 0 Z " fill="#98B5D5" transform="translate(292,166)"/>
<path d="M0 0 C3.32121673 2.52166455 5.81424917 5.53474834 7.6875 9.28125 C7.6875 12.25125 7.6875 15.22125 7.6875 18.28125 C-4.1925 18.28125 -16.0725 18.28125 -28.3125 18.28125 C-28.3125 20.26125 -28.3125 22.24125 -28.3125 24.28125 C-28.6425 24.28125 -28.9725 24.28125 -29.3125 24.28125 C-29.3125 21.64125 -29.3125 19.00125 -29.3125 16.28125 C-20.0725 16.28125 -10.8325 16.28125 -1.3125 16.28125 C-0.94253192 7.47386298 -0.94253192 7.47386298 -5.3125 1.28125 C-8.72707004 -1.30911348 -12.14532171 -1.14983741 -16.3125 -0.71875 C-21.04989373 1.64994686 -23.26902725 4.52600827 -26.08203125 8.8046875 C-27.3125 10.28125 -27.3125 10.28125 -30.0625 11.09375 C-30.805 11.155625 -31.5475 11.2175 -32.3125 11.28125 C-32.6425 11.94125 -32.9725 12.60125 -33.3125 13.28125 C-33.9725 13.28125 -34.6325 13.28125 -35.3125 13.28125 C-33.5258359 7.38525849 -29.63759753 2.94203395 -24.6875 -0.59375 C-17.08642636 -4.19425857 -7.30550983 -4.2615474 0 0 Z " fill="#3A3E4C" transform="translate(148.3125,299.71875)"/>
<path d="M0 0 C4.62 0 9.24 0 14 0 C13.09209717 0.98806641 12.18419434 1.97613281 11.2487793 2.99414062 C8.0286713 6.75885218 5.99534401 10.57867159 4.01953125 15.09375 C3.67999924 15.84410522 3.34046722 16.59446045 2.99064636 17.36755371 C1.92018294 19.74023974 0.86619039 22.11982539 -0.1875 24.5 C-0.90453277 26.09553166 -1.62262352 27.6905883 -2.34179688 29.28515625 C-5.28705387 35.83200655 -8.18529344 42.39591328 -11 49 C-12.87768555 48.70239258 -12.87768555 48.70239258 -15 48 C-16.48092133 45.54953337 -17.66322467 43.28491084 -18.8125 40.6875 C-19.13669922 40.01009766 -19.46089844 39.33269531 -19.79492188 38.63476562 C-21.47438461 34.95577123 -22.26031584 32.84663862 -21 29 C-20.34 29 -19.68 29 -19 29 C-18.67 28.01 -18.34 27.02 -18 26 C-17.34 26 -16.68 26 -16 26 C-14.02 30.29 -12.04 34.58 -10 39 C-7.56025339 35.74700452 -6.14425783 33.36955459 -4.58984375 29.71875 C-4.15736328 28.71199219 -3.72488281 27.70523437 -3.27929688 26.66796875 C-2.83650391 25.62253906 -2.39371094 24.57710938 -1.9375 23.5 C-1.05168132 21.42669855 -0.16499661 19.35376684 0.72265625 17.28125 C1.11203369 16.36408203 1.50141113 15.44691406 1.90258789 14.50195312 C2.59442584 12.92465494 3.33310108 11.36634096 4.13452148 9.84179688 C5.24388392 7.48099851 5.14306191 5.57511442 5 3 C3.35 2.34 1.7 1.68 0 1 C0 0.67 0 0.34 0 0 Z " fill="#2F3445" transform="translate(208,298)"/>
<path d="M0 0 C3.37329915 1.39584792 5.04232662 2.92365611 7 6 C8.59228648 10.77685943 8.99433654 15.45842229 7.12890625 20.2265625 C4.27375926 25.22541002 1.25589843 27.70651705 -4 30 C-5.32 30 -6.64 30 -8 30 C-7.04032429 28.03309708 -6.07022719 26.11508032 -4.9296875 24.24609375 C-0.77435442 17.12046702 -1.25600941 9.86922584 -3 2 C-2.01 2 -1.02 2 0 2 C0 1.34 0 0.68 0 0 Z " fill="#303646" transform="translate(81,283)"/>
<path d="M0 0 C1.40078104 0.88807687 2.79537637 1.78591259 4.1875 2.6875 C5.35345703 3.43580078 5.35345703 3.43580078 6.54296875 4.19921875 C9 6 9 6 14 11 C-3.49 11 -20.98 11 -39 11 C-38.67 10.34 -38.34 9.68 -38 9 C-37.43192627 8.99589111 -36.86385254 8.99178223 -36.27856445 8.98754883 C-23.1101255 8.82116301 -10.74575513 8.64717237 0 0 Z " fill="#DAE4EE" transform="translate(234,236)"/>
<path d="M0 0 C3 0.5625 3 0.5625 5.4375 2.6875 C7 5.5625 7 5.5625 7 8.6875 C6 11.5625 6 11.5625 4.3125 13.5 C1.10056066 14.97575591 -0.66474802 14.62694212 -4 13.5625 C-6.27605184 11.43818495 -6.90218604 10.12143694 -7.4375 7.0625 C-6.64602694 2.53979681 -4.41632799 0.8280615 0 0 Z " fill="#B2B3B6" transform="translate(360,365.4375)"/>
<path d="M0 0 C3.4375 1 3.4375 1 5.4375 2.6875 C6.82656225 5.89970645 6.49271374 7.6936636 5.4375 11 C3.32334778 13.2651631 1.96593896 13.89431221 -1.0625 14.5 C-3.5625 14 -3.5625 14 -5.875 11.8125 C-7.71206543 8.75072428 -8.276437 7.4804429 -7.5625 4 C-5.24958684 0.48437199 -4.25397332 0 0 0 Z " fill="#B5B5B8" transform="translate(278.5625,366)"/>
<path d="M0 0 C0.99 0.33 1.98 0.66 3 1 C2 4 2 4 -1.3125 6 C-13.37208791 11.52231975 -25.27784093 11.37524561 -38.25 11.1875 C-40.07420765 11.17241988 -41.89842742 11.15873739 -43.72265625 11.14648438 C-48.14874187 11.11375617 -52.57423389 11.06215964 -57 11 C-57 10.34 -57 9.68 -57 9 C-56.4330542 9.00523682 -55.8661084 9.01047363 -55.28198242 9.01586914 C-30.27917336 10.71962091 -30.27917336 10.71962091 -7 4 C-4.6862987 2.60995021 -2.3771612 1.28366705 0 0 Z " fill="#B3C8DD" transform="translate(292,336)"/>
<path d="M0 0 C0.66 0.33 1.32 0.66 2 1 C-2.13250877 6.97864671 -5.54142737 11.55148675 -13 13 C-15.35203736 13.11801354 -17.70753638 13.17511849 -20.0625 13.1875 C-21.90521484 13.20876953 -21.90521484 13.20876953 -23.78515625 13.23046875 C-27 13 -27 13 -30 11 C-28.3125 8.9375 -28.3125 8.9375 -26 7 C-23.875 7.25 -23.875 7.25 -21 8 C-14.12279705 8.67703034 -8.72551622 8.0641554 -3 4 C-1.02575131 1.93455106 -1.02575131 1.93455106 0 0 Z " fill="#363A4A" transform="translate(155,334)"/>
<path d="M0 0 C0.66 0 1.32 0 2 0 C5.86537943 5.67727604 6.42147284 9.15106627 6 16 C3.03 16 0.06 16 -3 16 C-2.88590318 13.89521396 -2.75834639 11.79115423 -2.625 9.6875 C-2.55539062 8.51574219 -2.48578125 7.34398437 -2.4140625 6.13671875 C-2 3 -2 3 0 0 Z " fill="#96B3D4" transform="translate(461,302)"/>
<path d="M0 0 C5.08623122 -0.07478624 10.17213442 -0.12889926 15.25878906 -0.16479492 C16.98508284 -0.17977675 18.71133926 -0.20016939 20.4375 -0.22631836 C43.11772527 -0.56100918 43.11772527 -0.56100918 48.74951172 4.60473633 C49.16217285 5.06517334 49.57483398 5.52561035 50 6 C49 8 49 8 47.3125 8.9375 C43.5616373 9.03887467 41.7257698 6.38504857 39 4 C35.24154069 2.60893805 31.15517793 2.655157 27.1875 2.4375 C26.4435498 2.39359131 25.69959961 2.34968262 24.93310547 2.30444336 C18.60257093 1.96169032 12.31229369 1.9905703 5.9765625 2.16015625 C3 2 3 2 0 0 Z " fill="#595B67" transform="translate(32,277)"/>
<path d="M0 0 C6.0546875 -0.1953125 6.0546875 -0.1953125 8 0 C8.66 0.66 9.32 1.32 10 2 C9.77614278 4.01471498 9.54581684 6.03145256 9.19140625 8.02734375 C8.84464352 10.2112135 8.84464352 10.2112135 10 13 C9.34 13 8.68 13 8 13 C7.34 12.01 6.68 11.02 6 10 C5.01 9.67 4.02 9.34 3 9 C3 10.65 3 12.3 3 14 C2.01 14 1.02 14 0 14 C0 9.38 0 4.76 0 0 Z " fill="#84868C" transform="translate(125,366)"/>
<path d="M0 0 C0.66 0.99 1.32 1.98 2 3 C0.68 3 -0.64 3 -2 3 C-2 3.66 -2 4.32 -2 5 C-0.35 5.66 1.3 6.32 3 7 C3 7.99 3 8.98 3 10 C-0.25 10.8125 -0.25 10.8125 -4 11 C-4.5775 10.195625 -5.155 9.39125 -5.75 8.5625 C-7.85310103 5.63915078 -7.85310103 5.63915078 -11.671875 5.29296875 C-13.03040859 5.23361534 -14.39021967 5.19906713 -15.75 5.1875 C-16.44738281 5.16236328 -17.14476562 5.13722656 -17.86328125 5.11132812 C-19.57491949 5.05271038 -21.2875186 5.02342947 -23 5 C-23 4.34 -23 3.68 -23 3 C-21.84242187 2.95101563 -20.68484375 2.90203125 -19.4921875 2.8515625 C-17.9531033 2.77648522 -16.4140419 2.70093957 -14.875 2.625 C-13.73417969 2.57859375 -13.73417969 2.57859375 -12.5703125 2.53125 C-8.05367842 2.297631 -4.25847653 1.67345883 0 0 Z " fill="#4E525E" transform="translate(72,311)"/>
<path d="M0 0 C4.62 0 9.24 0 14 0 C13.09427246 0.98299072 12.18854492 1.96598145 11.25537109 2.97875977 C7.9743978 6.81442046 5.92593857 10.73949607 3.9140625 15.33984375 C3.56741547 16.10680069 3.22076843 16.87375763 2.86361694 17.66395569 C1.77297467 20.08366682 0.69878308 22.51026763 -0.375 24.9375 C-1.11740806 26.59228252 -1.86088813 28.24658453 -2.60546875 29.90039062 C-4.41607369 33.92815064 -6.21197619 37.96216805 -8 42 C-9.33230754 38.00307739 -8.26646599 36.7346703 -6.54296875 32.94140625 C-6.00736328 31.75095703 -5.47175781 30.56050781 -4.91992188 29.33398438 C-4.34259455 28.07675557 -3.7651191 26.81959478 -3.1875 25.5625 C-2.62087217 24.30963909 -2.05510678 23.05638773 -1.49023438 21.80273438 C2.63221036 12.69592397 2.63221036 12.69592397 4.1706543 9.78491211 C5.25268348 7.45617635 5.14079546 5.53431821 5 3 C2.525 2.01 2.525 2.01 0 1 C0 0.67 0 0.34 0 0 Z " fill="#4A4B56" transform="translate(208,298)"/>
<path d="M0 0 C22.11 0 44.22 0 67 0 C67 0.33 67 0.66 67 1 C50.5 1 34 1 17 1 C16.67 1.99 16.34 2.98 16 4 C15.34773437 3.86722656 14.69546875 3.73445313 14.0234375 3.59765625 C9.3591713 2.65517178 4.70131546 1.74231297 0 1 C0 0.67 0 0.34 0 0 Z " fill="#9DB7D1" transform="translate(126,116)"/>
<path d="M0 0 C3.67448881 0.09931051 4.84233376 0.83829103 7.4375 3.5 C10.36879003 6.35979516 11.99148231 6.72033597 16 7 C16 7.66 16 8.32 16 9 C3.33029613 9.55353075 3.33029613 9.55353075 -2 6 C-2 2 -2 2 0 0 Z " fill="#3C404F" transform="translate(85,338)"/>
<path d="M0 0 C3.375 -0.125 3.375 -0.125 7 0 C7.66 0.66 8.32 1.32 9 2 C8.44444444 6.55555556 8.44444444 6.55555556 7 8 C5.00041636 8.04080783 2.99954746 8.04254356 1 8 C1 9.65 1 11.3 1 13 C0.67 13 0.34 13 0 13 C0 8.71 0 4.42 0 0 Z " fill="#52525A" transform="translate(109,366)"/>
<path d="M0 0 C3 1 3 1 4.203125 3.21484375 C4.54859375 4.11332031 4.8940625 5.01179688 5.25 5.9375 C5.60578125 6.83339844 5.9615625 7.72929687 6.328125 8.65234375 C7 11 7 11 6 13 C5.67 12.01 5.34 11.02 5 10 C2.69 10 0.38 10 -2 10 C-2.33 10.99 -2.66 11.98 -3 13 C-4.23593891 9.29218328 -3.5678132 8.32489747 -2.0625 4.8125 C-1.68222656 3.91144531 -1.30195313 3.01039063 -0.91015625 2.08203125 C-0.60980469 1.39496094 -0.30945313 0.70789063 0 0 Z " fill="#4C4D56" transform="translate(147,366)"/>
<path d="M0 0 C0.66 0 1.32 0 2 0 C3.5078125 1.75 3.5078125 1.75 5.125 4 C5.66382813 4.7425 6.20265625 5.485 6.7578125 6.25 C7.16773438 6.8275 7.57765625 7.405 8 8 C8.33 5.36 8.66 2.72 9 0 C9.66 0 10.32 0 11 0 C11 4.29 11 8.58 11 13 C6.11261969 10.55630984 4.97285462 8.45928193 2 4 C1.67 6.97 1.34 9.94 1 13 C0.67 13 0.34 13 0 13 C0 8.71 0 4.42 0 0 Z " fill="#4A4D54" transform="translate(375,366)"/>
<path d="M0 0 C1.0725 0.2475 2.145 0.495 3.25 0.75 C3.58 1.74 3.91 2.73 4.25 3.75 C1.28 3.42 -1.69 3.09 -4.75 2.75 C-4.79241723 5.08294775 -4.79092937 7.41702567 -4.75 9.75 C-3.70509265 11.0178956 -3.70509265 11.0178956 -1.375 10.875 C1.36093048 10.86343738 1.36093048 10.86343738 4.25 9.75 C4.25 10.41 4.25 11.07 4.25 11.75 C1.00173326 13.91551116 0.01905843 14.30156953 -3.75 13.75 C-6.0625 12.125 -6.0625 12.125 -7.75 9.75 C-8.35975382 6.09147708 -8.19543026 4.44487121 -6.1875 1.3125 C-3.75 -0.25 -3.75 -0.25 0 0 Z " fill="#6C6D73" transform="translate(168.75,366.25)"/>
<path d="M0 0 C6.93 0 13.86 0 21 0 C16.21277449 4.78722551 5.83971489 3.04778656 -0.63500977 3.06591797 C-4.42360329 3.06096602 -8.21156874 3.03566515 -12 3 C-12 2.67 -12 2.34 -12 2 C-6.06 1.505 -6.06 1.505 0 1 C0 0.67 0 0.34 0 0 Z " fill="#9FB7CF" transform="translate(298,245)"/>
<path d="M0 0 C0.66 0.99 1.32 1.98 2 3 C0.700625 2.979375 -0.59875 2.95875 -1.9375 2.9375 C-3.29165633 2.91600546 -4.64756083 2.92851801 -6 3 C-7.34404775 4.11836224 -7.34404775 4.11836224 -7.125 7 C-7.34404775 9.88163776 -7.34404775 9.88163776 -6 11 C-2.93518979 11.1613058 -0.94450722 10.98150241 2 10 C1.34 11.32 0.68 12.64 0 14 C-2.75 14.3125 -2.75 14.3125 -6 14 C-8.62846098 11.57904909 -9.81388233 9.95385308 -10.5 6.4375 C-9.31065637 0.63944981 -5.52809885 -0.84123243 0 0 Z " fill="#65666C" transform="translate(217,366)"/>
<path d="M0 0 C2.97 0 5.94 0 9 0 C9 0.66 9 1.32 9 2 C6.69 2 4.38 2 2 2 C2 3.32 2 4.64 2 6 C3.98 6 5.96 6 8 6 C8 6.33 8 6.66 8 7 C6.02 7 4.04 7 2 7 C2 8.65 2 10.3 2 12 C4.31 12 6.62 12 9 12 C9 12.33 9 12.66 9 13 C6.03 13 3.06 13 0 13 C0 8.71 0 4.42 0 0 Z " fill="#64676E" transform="translate(227,366)"/>
<path d="M0 0 C-0.99 0.495 -0.99 0.495 -2 1 C-2.33 1.99 -2.66 2.98 -3 4 C-5.24609375 2.09570312 -5.24609375 2.09570312 -7.4921875 0.19140625 C-10.89239289 -2.49528454 -13.76087028 -2.14874139 -18 -2 C-18.99 -1.67 -19.98 -1.34 -21 -1 C-21.99 -1.66 -22.98 -2.32 -24 -3 C-15.38501467 -5.52295999 -7.57046268 -4.65874626 0 0 Z " fill="#464856" transform="translate(150,301)"/>
<path d="M0 0 C2.46800047 1.15173355 4.04783565 2.04783565 6 4 C5.67 4.99 5.34 5.98 5 7 C4.01 6.01 3.02 5.02 2 4 C0.99740493 7.00778521 0.69685358 9.53820647 0.4375 12.6875 C0.31181641 14.17830078 0.31181641 14.17830078 0.18359375 15.69921875 C0.12300781 16.45847656 0.06242187 17.21773438 0 18 C-0.33 18 -0.66 18 -1 18 C-1.06058594 17.26394531 -1.12117188 16.52789062 -1.18359375 15.76953125 C-1.26738281 14.79371094 -1.35117188 13.81789063 -1.4375 12.8125 C-1.51871094 11.84957031 -1.59992188 10.88664062 -1.68359375 9.89453125 C-1.97666151 7.21350398 -2.42703754 4.6337014 -3 2 C-2.01 2 -1.02 2 0 2 C0 1.34 0 0.68 0 0 Z " fill="#292D3C" transform="translate(81,283)"/>
<path d="M0 0 C3.3 0 6.6 0 10 0 C10 0.66 10 1.32 10 2 C8.68 2 7.36 2 6 2 C6 5.63 6 9.26 6 13 C5.34 13 4.68 13 4 13 C4 9.37 4 5.74 4 2 C2.68 2 1.36 2 0 2 C0 1.34 0 0.68 0 0 Z " fill="#6C6E74" transform="translate(326,366)"/>
<path d="M0 0 C3.3 0 6.6 0 10 0 C10 0.66 10 1.32 10 2 C8.68 2 7.36 2 6 2 C6 5.63 6 9.26 6 13 C5.34 13 4.68 13 4 13 C4 9.37 4 5.74 4 2 C2.68 2 1.36 2 0 2 C0 1.34 0 0.68 0 0 Z " fill="#73747A" transform="translate(180,366)"/>
<path d="M0 0 C0.33 1.32 0.66 2.64 1 4 C-3.75 7 -3.75 7 -6 7 C-6.66 5.02 -7.32 3.04 -8 1 C-2.25 0 -2.25 0 0 0 Z " fill="#2B303F" transform="translate(77,320)"/>
<path d="M0 0 C-4.2760394 3.18045761 -7.08508691 3.22489761 -12.3125 2.6875 C-13.56675781 2.56761719 -14.82101563 2.44773438 -16.11328125 2.32421875 C-17.06589844 2.21722656 -18.01851562 2.11023438 -19 2 C-19 1.34 -19 0.68 -19 0 C-16.58373582 -0.19534474 -14.16734771 -0.38153404 -11.75 -0.5625 C-11.06808594 -0.61857422 -10.38617188 -0.67464844 -9.68359375 -0.73242188 C-6.2579419 -0.98186254 -3.27298823 -1.13879745 0 0 Z " fill="#A6BDD4" transform="translate(185,186)"/>
<path d="M0 0 C0.66 0.33 1.32 0.66 2 1 C-4.09714286 9.82095238 -4.09714286 9.82095238 -9 12 C-9.66 12 -10.32 12 -11 12 C-11 10.68 -11 9.36 -11 8 C-10.45730469 7.75765625 -9.91460937 7.5153125 -9.35546875 7.265625 C-3.80914453 4.69107324 -3.80914453 4.69107324 0 0 Z " fill="#383D4D" transform="translate(155,334)"/>
<path d="M0 0 C2.31 0 4.62 0 7 0 C8 3 8 3 7.0625 5.1875 C6.5365625 6.0846875 6.5365625 6.0846875 6 7 C4.125 6.875 4.125 6.875 2 6 C0.75 2.9375 0.75 2.9375 0 0 Z " fill="#3A3E4E" transform="translate(191,340)"/>
<path d="M0 0 C0.33 0.66 0.66 1.32 1 2 C0.33333333 3.33333333 -0.33333333 4.66666667 -1 6 C-0.67 6.66 -0.34 7.32 0 8 C-2.31 8 -4.62 8 -7 8 C-7 7.01 -7 6.02 -7 5 C-8.32 4.67 -9.64 4.34 -11 4 C-10.37351563 3.79503906 -9.74703125 3.59007812 -9.1015625 3.37890625 C-8.28429687 3.10949219 -7.46703125 2.84007812 -6.625 2.5625 C-5.81289062 2.29566406 -5.00078125 2.02882812 -4.1640625 1.75390625 C-1.98968201 1.04820271 -1.98968201 1.04820271 0 0 Z " fill="#A3BED8" transform="translate(197,180)"/>
<path d="M0 0 C0.66 0.33 1.32 0.66 2 1 C2 1.66 2 2.32 2 3 C-1.05919388 4.01973129 -3.12418025 4.11533602 -6.32421875 4.09765625 C-7.35224609 4.09443359 -8.38027344 4.09121094 -9.43945312 4.08789062 C-10.51130859 4.07951172 -11.58316406 4.07113281 -12.6875 4.0625 C-13.77095703 4.05798828 -14.85441406 4.05347656 -15.97070312 4.04882812 C-18.64719085 4.03703743 -21.32356777 4.02058063 -24 4 C-24 3.67 -24 3.34 -24 3 C-22.68644531 2.95101563 -21.37289063 2.90203125 -20.01953125 2.8515625 C-18.28383405 2.77650532 -16.54815797 2.70095877 -14.8125 2.625 C-13.94818359 2.5940625 -13.08386719 2.563125 -12.19335938 2.53125 C-7.66159468 2.322893 -4.18950339 1.87104035 0 0 Z " fill="#ABBFD4" transform="translate(281,342)"/>
<path d="M0 0 C2.64 0 5.28 0 8 0 C8 0.99 8 1.98 8 3 C5.47524538 4.26237731 3.68799534 4.09856404 0.875 4.0625 C-0.03507813 4.05347656 -0.94515625 4.04445313 -1.8828125 4.03515625 C-2.58148438 4.02355469 -3.28015625 4.01195312 -4 4 C-3.01 3.67 -2.02 3.34 -1 3 C-0.67 2.01 -0.34 1.02 0 0 Z " fill="#2A3040" transform="translate(136,343)"/>
<path d="M0 0 C5.75 1.625 5.75 1.625 8 5 C5.69 5.33 3.38 5.66 1 6 C0.01 4.68 -0.98 3.36 -2 2 C-1.34 2 -0.68 2 0 2 C0 1.34 0 0.68 0 0 Z " fill="#93B0D2" transform="translate(287,281)"/>
<path d="M0 0 C-0.33 1.32 -0.66 2.64 -1 4 C-4.63 4 -8.26 4 -12 4 C-7.99899414 0.12023674 -5.51903037 -0.43286513 0 0 Z " fill="#91B0D0" transform="translate(454,343)"/>
<path d="M0 0 C2.10388569 -0.05402274 4.20816714 -0.09280256 6.3125 -0.125 C8.07013672 -0.15980469 8.07013672 -0.15980469 9.86328125 -0.1953125 C13 0 13 0 16 2 C14.02 2.99 14.02 2.99 12 4 C11.67 3.67 11.34 3.34 11 3 C8.41977858 2.71778828 5.83969815 2.55179803 3.25 2.37890625 C2.5075 2.25386719 1.765 2.12882812 1 2 C0.67 1.34 0.34 0.68 0 0 Z " fill="#AFC4D9" transform="translate(340,297)"/>
<path d="M0 0 C4.75 0.875 4.75 0.875 7 2 C7 2.66 7 3.32 7 4 C5.35 4.66 3.7 5.32 2 6 C1.01 5.01 0.02 4.02 -1 3 C-0.67 2.01 -0.34 1.02 0 0 Z " fill="#96B3D3" transform="translate(354,299)"/>
<path d="M0 0 C1.98 0 3.96 0 6 0 C5.67 1.65 5.34 3.3 5 5 C3.35 5 1.7 5 0 5 C0 3.35 0 1.7 0 0 Z " fill="#E9EAEB" transform="translate(110,368)"/>
<path d="M0 0 C0.66 0.33 1.32 0.66 2 1 C1.42655063 3.86724686 1.1385485 4.8614515 -1 7 C-3.125 6.625 -3.125 6.625 -5 6 C-5 5.01 -5 4.02 -5 3 C-2.625 1.25 -2.625 1.25 0 0 Z " fill="#282D3E" transform="translate(82,330)"/>
<path d="M0 0 C0.33 0.99 0.66 1.98 1 3 C-1.97 2.67 -4.94 2.34 -8 2 C-8.66 3.98 -9.32 5.96 -10 8 C-10.33 8 -10.66 8 -11 8 C-10.6875 4.625 -10.6875 4.625 -10 1 C-6.1496895 -1.56687367 -4.41430237 -0.83288724 0 0 Z " fill="#5C5E64" transform="translate(172,367)"/>
<path d="M0 0 C6.6 0 13.2 0 20 0 C16.08961387 1.95519307 14.98571761 2.19633278 10.875 2 C8.30694573 1.83279769 8.30694573 1.83279769 6 2 C5.34 2.66 4.68 3.32 4 4 C2.68 2.68 1.36 1.36 0 0 Z " fill="#494B56" transform="translate(168,298)"/>
<path d="M0 0 C2.97 0.495 2.97 0.495 6 1 C5.67 2.65 5.34 4.3 5 6 C3.02 5.34 1.04 4.68 -1 4 C-0.67 2.68 -0.34 1.36 0 0 Z " fill="#EAEBEC" transform="translate(258,367)"/>
<path d="M0 0 C1.65 0.33 3.3 0.66 5 1 C5 2.32 5 3.64 5 5 C3.35 5 1.7 5 0 5 C0 4.34 0 3.68 0 3 C-0.66 2.67 -1.32 2.34 -2 2 C-1.34 2 -0.68 2 0 2 C0 1.34 0 0.68 0 0 Z " fill="#EAEBEC" transform="translate(396,373)"/>
<path d="M0 0 C0.66 0.66 1.32 1.32 2 2 C0.92456217 2.98783194 -0.16073217 3.96493943 -1.25 4.9375 C-2.15492188 5.75541016 -2.15492188 5.75541016 -3.078125 6.58984375 C-5.08467305 8.06212799 -6.57002449 8.57529189 -9 9 C-9 8.01 -9 7.02 -9 6 C-8.43410156 5.73445313 -7.86820312 5.46890625 -7.28515625 5.1953125 C-6.55167969 4.84210938 -5.81820313 4.48890625 -5.0625 4.125 C-4.33160156 3.77695312 -3.60070312 3.42890625 -2.84765625 3.0703125 C-0.83667541 2.1315023 -0.83667541 2.1315023 0 0 Z " fill="#ADC1D6" transform="translate(355,337)"/>
<path d="M0 0 C1.9375 0.3125 1.9375 0.3125 4 1 C4.33 1.99 4.66 2.98 5 4 C3.35 4.66 1.7 5.32 0 6 C-1.125 2.25 -1.125 2.25 0 0 Z " fill="#2A2F3E" transform="translate(148,302)"/>
<path d="M0 0 C-0.639375 0.28875 -1.27875 0.5775 -1.9375 0.875 C-4.15206079 1.82823451 -4.15206079 1.82823451 -5 4 C-7.97 3.67 -10.94 3.34 -14 3 C-14 2.67 -14 2.34 -14 2 C-12.04396149 1.47061343 -10.08507711 0.95173199 -8.125 0.4375 C-7.03445312 0.14746094 -5.94390625 -0.14257812 -4.8203125 -0.44140625 C-2 -1 -2 -1 0 0 Z " fill="#DEECF2" transform="translate(205,184)"/>
<path d="M0 0 C2.475 0.99 2.475 0.99 5 2 C4.67 2.99 4.34 3.98 4 5 C1.9375 5.6875 1.9375 5.6875 0 6 C-0.66 5.01 -1.32 4.02 -2 3 C-1.34 2.67 -0.68 2.34 0 2 C0 1.34 0 0.68 0 0 Z " fill="#3E4050" transform="translate(77,280)"/>
<path d="M0 0 C0 0.33 0 0.66 0 1 C-3.96 1 -7.92 1 -12 1 C-8.14267411 -2.85732589 -4.65697048 -2.26195709 0 0 Z " fill="#A1BAD6" transform="translate(143,245)"/>
<path d="M0 0 C1.98 0 3.96 0 6 0 C5.67 0.99 5.34 1.98 5 3 C1.7 3 -1.6 3 -5 3 C-5 2.67 -5 2.34 -5 2 C-3.35 1.67 -1.7 1.34 0 1 C0 0.67 0 0.34 0 0 Z " fill="#91AFCB" transform="translate(340,344)"/>
<path d="M0 0 C1.65 0 3.3 0 5 0 C5 1.32 5 2.64 5 4 C3.35 4 1.7 4 0 4 C0 2.68 0 1.36 0 0 Z " fill="#F5F6F6" transform="translate(128,368)"/>
<path d="M0 0 C3 3.75 3 3.75 3 6 C1.35 6 -0.3 6 -2 6 C-1.34 4.02 -0.68 2.04 0 0 Z " fill="#D7D9DD" transform="translate(148,369)"/>
<path d="M0 0 C0.66 0.33 1.32 0.66 2 1 C-0.31 3.31 -2.62 5.62 -5 8 C-5.33 7.34 -5.66 6.68 -6 6 C-2.25 1.125 -2.25 1.125 0 0 Z " fill="#EDF4F8" transform="translate(339,323)"/>
<path d="M0 0 C1.65 0.33 3.3 0.66 5 1 C3.75 2.5 3.75 2.5 2 4 C0.68 4 -0.64 4 -2 4 C-1.34 2.68 -0.68 1.36 0 0 Z " fill="#292E3C" transform="translate(75,309)"/>
<path d="M0 0 C-1.75 3.875 -1.75 3.875 -4 5 C-4.99 4.01 -5.98 3.02 -7 2 C-4.35261084 0.5393715 -3.10551666 0 0 0 Z " fill="#A2BDD6" transform="translate(439,299)"/>
<path d="M0 0 C0 0.99 0 1.98 0 3 C-1.98 3.66 -3.96 4.32 -6 5 C-6.66 4.34 -7.32 3.68 -8 3 C-5.36 2.01 -2.72 1.02 0 0 Z " fill="#A4BBD4" transform="translate(372,342)"/>
<path d="M0 0 C0.66 0.33 1.32 0.66 2 1 C-0.97 4.96 -0.97 4.96 -4 9 C-4.66 8.67 -5.32 8.34 -6 8 C-6 7.34 -6 6.68 -6 6 C-4.34997172 4.64613064 -2.6825613 3.31321858 -1 2 C-0.67 1.34 -0.34 0.68 0 0 Z " fill="#50525C" transform="translate(155,334)"/>
<path d="M0 0 C1.2065625 0.0309375 1.2065625 0.0309375 2.4375 0.0625 C2.1075 1.7125 1.7775 3.3625 1.4375 5.0625 C-0.2125 3.7425 -1.8625 2.4225 -3.5625 1.0625 C-2.5625 0.0625 -2.5625 0.0625 0 0 Z " fill="#2E3243" transform="translate(65.5625,313.9375)"/>
<path d="M0 0 C-1.65 1.32 -3.3 2.64 -5 4 C-5 3.34 -5 2.68 -5 2 C-5.99 1.67 -6.98 1.34 -8 1 C-4.93251126 -0.86240388 -3.40254489 -1.2151946 0 0 Z " fill="#404351" transform="translate(129,300)"/>
</svg>
